<?xml version="1.0" standalone="no"?>
<!DOCTYPE svg PUBLIC "-//W3C//DTD SVG 20010904//EN"
 "http://www.w3.org/TR/2001/REC-SVG-20010904/DTD/svg10.dtd">
<svg version="1.0" xmlns="http://www.w3.org/2000/svg"
 width="700.000000pt" height="700.000000pt" viewBox="0 0 700.000000 700.000000"
 preserveAspectRatio="xMidYMid meet">

<g transform="translate(0.000000,700.000000) scale(0.100000,-0.100000)"
fill="#000000" stroke="none">
<path d="M3100 6984 c-207 -25 -495 -85 -579 -120 -20 -9 -85 -31 -146 -51
-60 -19 -148 -55 -195 -78 -47 -23 -116 -52 -155 -65 -195 -64 -526 -270 -782
-486 -181 -153 -400 -385 -544 -574 -153 -200 -310 -466 -373 -633 -13 -34
-51 -124 -85 -201 -76 -173 -107 -270 -131 -414 -11 -62 -33 -166 -50 -230
-49 -194 -55 -266 -55 -632 1 -348 5 -405 51 -652 116 -632 425 -1250 859
-1718 356 -384 763 -669 1241 -868 215 -90 470 -168 654 -199 47 -8 139 -24
205 -36 107 -19 157 -21 470 -21 365 0 421 5 669 50 403 74 891 261 1131 433
44 32 100 70 125 84 49 29 241 174 366 277 105 86 362 338 434 425 366 446
623 989 729 1541 45 235 53 317 58 597 6 323 -5 475 -47 646 -16 64 -36 154
-45 201 -9 47 -29 130 -45 185 -15 55 -38 140 -50 190 -25 105 -61 194 -160
400 -82 169 -174 330 -232 402 -21 26 -67 91 -102 143 -153 228 -439 519 -711
725 -89 68 -287 191 -385 240 -41 20 -108 57 -148 82 -187 116 -598 259 -897
312 -193 34 -235 41 -330 51 -131 14 -608 10 -745 -6z m2090 -2174 l0 -400
-595 0 -595 0 0 -258 0 -259 138 -7 c425 -21 914 -99 1177 -188 237 -80 375
-179 375 -270 0 -77 -56 -135 -199 -208 -243 -122 -804 -229 -1351 -258 l-135
-7 -3 -832 -2 -833 -435 0 -435 0 -2 833 -3 832 -55 2 c-507 22 -1055 111
-1331 218 -178 68 -287 149 -304 224 -25 117 144 237 460 325 281 79 724 145
1093 162 l142 7 0 258 0 259 -595 0 -595 0 0 400 0 400 1625 0 1625 0 0 -400z"/>
<path d="M2900 3809 c-807 -66 -1282 -203 -1251 -359 31 -156 582 -292 1371
-340 244 -15 890 -12 1140 5 680 45 1170 155 1288 290 18 19 32 47 32 60 0 54
-93 124 -232 174 -125 46 -503 122 -718 145 -128 14 -419 36 -472 36 l-58 0 0
-288 0 -289 -122 -6 c-155 -9 -456 -9 -620 0 l-128 6 0 289 0 288 -67 -1 c-38
-1 -111 -5 -163 -10z"/>
</g>
</svg>
